<?xml version="1.0" encoding="UTF-8" standalone="no"?>
<!-- Created with Inkscape (http://www.inkscape.org/) -->

<svg
   xmlns:dc="http://purl.org/dc/elements/1.1/"
   xmlns:cc="http://creativecommons.org/ns#"
   xmlns:rdf="http://www.w3.org/1999/02/22-rdf-syntax-ns#"
   xmlns:svg="http://www.w3.org/2000/svg"
   xmlns="http://www.w3.org/2000/svg"
   xmlns:sodipodi="http://sodipodi.sourceforge.net/DTD/sodipodi-0.dtd"
   xmlns:inkscape="http://www.inkscape.org/namespaces/inkscape"
   width="512"
   height="512"
   id="svg2"
   version="1.1"
   inkscape:version="0.48.4 r9939"
   sodipodi:docname="tower.svg">
  <defs
     id="defs4" />
  <sodipodi:namedview
     id="base"
     pagecolor="#ffffff"
     bordercolor="#666666"
     borderopacity="1.0"
     inkscape:pageopacity="0.0"
     inkscape:pageshadow="2"
     inkscape:zoom="1.979899"
     inkscape:cx="375"
     inkscape:cy="257.36034"
     inkscape:document-units="px"
     inkscape:current-layer="layer1"
     showgrid="true"
     showguides="true"
     inkscape:guide-bbox="true"
     inkscape:window-width="2560"
     inkscape:window-height="1578"
     inkscape:window-x="1672"
     inkscape:window-y="-8"
     inkscape:window-maximized="1">
    <inkscape:grid
       type="xygrid"
       id="grid2985"
       empspacing="16"
       visible="true"
       enabled="true"
       snapvisiblegridlinesonly="true" />
    <sodipodi:guide
       orientation="1,0"
       position="256,256"
       id="guide2987" />
    <sodipodi:guide
       orientation="0,1"
       position="256,256"
       id="guide2989" />
  </sodipodi:namedview>
  <metadata
     id="metadata7">
    <rdf:RDF>
      <cc:Work
         rdf:about="">
        <dc:format>image/svg+xml</dc:format>
        <dc:type
           rdf:resource="http://purl.org/dc/dcmitype/StillImage" />
        <dc:title />
      </cc:Work>
    </rdf:RDF>
  </metadata>
  <g
     inkscape:label="Layer 1"
     inkscape:groupmode="layer"
     id="layer1"
     transform="translate(0,-540.36218)">
    <path
       style="fill:#000000;stroke:#000000;stroke-width:1px;stroke-linecap:butt;stroke-linejoin:miter;stroke-opacity:1"
       d="m 208,496 c -53.33333,0 -80,0 -80,0 l 0,-48 16,0 0,-192 c 0,0 -32,-48 -32,-96 l 0,-48 C 112,48 128,16 256,0 384,16 400,48 400,112 l 0,48 c 0,48 -32,96 -32,96 l 0,192 16,0 0,48 -80,0 c 0.67597,-168.33505 -95.32911,-168.15213 -96,0 z"
       id="path2991"
       inkscape:connector-curvature="0"
       transform="translate(0,540.36218)"
       sodipodi:nodetypes="cccccccccscccccc" />
    <path
       sodipodi:type="arc"
       style="fill:#ffffff"
       id="path3072"
       sodipodi:cx="240"
       sodipodi:cy="104"
       sodipodi:rx="16.510538"
       sodipodi:ry="56.330624"
       d="m 256.51054,104 a 16.510538,56.330624 0 1 1 -33.02108,0 16.510538,56.330624 0 1 1 33.02108,0 z"
       transform="matrix(2.4833391,0,0,1.5276243,-340.09149,515.54128)" />
    <path
       sodipodi:type="arc"
       style="fill:#ffffff"
       id="path3072-4"
       sodipodi:cx="240"
       sodipodi:cy="104"
       sodipodi:rx="16"
       sodipodi:ry="45.856842"
       d="m 256,104 a 16,45.856842 0 1 1 -32,0 16,45.856842 0 1 1 32,0 z"
       transform="matrix(1.5524272,0,0,1.5276243,-14.647204,515.54128)" />
    <path
       sodipodi:type="arc"
       style="fill:#ffffff"
       id="path3072-4-8"
       sodipodi:cx="240"
       sodipodi:cy="104"
       sodipodi:rx="16"
       sodipodi:ry="45.750507"
       d="m 256,104 a 16,45.750507 0 1 1 -32,0 16,45.750507 0 1 1 32,0 z"
       transform="matrix(1.5524272,0,0,1.5276243,-215.83001,515.37884)" />
  </g>
</svg>
